<?xml version="1.0" encoding="us-ascii" standalone="no"?><svg xmlns="http://www.w3.org/2000/svg" xmlns:xlink="http://www.w3.org/1999/xlink" contentStyleType="text/css" height="398px" preserveAspectRatio="none" style="width:440px;height:398px;background:#FFFFFF;" version="1.1" viewBox="0 0 440 398" width="440px" zoomAndPan="magnify"><defs/><g><text fill="#000000" font-family="sans-serif" font-size="14" font-weight="bold" lengthAdjust="spacing" textLength="253" x="92.5" y="27.9951">Enrolment Nomination Request</text><rect fill="#FFFFFF" height="88.1328" style="stroke:#181818;stroke-width:1.0;" width="10" x="23" y="266.125"/><rect fill="#FFFFFF" height="224.5313" style="stroke:#181818;stroke-width:1.0;" width="10" x="219" y="129.7266"/><line style="stroke:#181818;stroke-width:0.5;stroke-dasharray:5.0,5.0;" x1="28" x2="28" y1="73.5938" y2="363.2578"/><line style="stroke:#181818;stroke-width:0.5;stroke-dasharray:5.0,5.0;" x1="223.5" x2="223.5" y1="73.5938" y2="363.2578"/><line style="stroke:#181818;stroke-width:0.5;stroke-dasharray:5.0,5.0;" x1="412" x2="412" y1="73.5938" y2="363.2578"/><rect fill="#6495ED" height="30.2969" rx="2.5" ry="2.5" style="stroke:#181818;stroke-width:0.5;" width="46" x="5" y="42.2969"/><text fill="#000000" font-family="sans-serif" font-size="14" lengthAdjust="spacing" textLength="28" x="12" y="62.292">NES</text><rect fill="#6495ED" height="30.2969" rx="2.5" ry="2.5" style="stroke:#181818;stroke-width:0.5;" width="46" x="5" y="362.2578"/><text fill="#000000" font-family="sans-serif" font-size="14" lengthAdjust="spacing" textLength="28" x="12" y="382.2529">NES</text><rect fill="#6495ED" height="30.2969" rx="2.5" ry="2.5" style="stroke:#181818;stroke-width:0.5;" width="205" x="121.5" y="42.2969"/><text fill="#000000" font-family="sans-serif" font-size="14" lengthAdjust="spacing" textLength="191" x="128.5" y="62.292">&lt;FHIR API&gt; Messaging Hub</text><rect fill="#6495ED" height="30.2969" rx="2.5" ry="2.5" style="stroke:#181818;stroke-width:0.5;" width="205" x="121.5" y="362.2578"/><text fill="#000000" font-family="sans-serif" font-size="14" lengthAdjust="spacing" textLength="191" x="128.5" y="382.2529">&lt;FHIR API&gt; Messaging Hub</text><rect fill="#6495ED" height="30.2969" rx="2.5" ry="2.5" style="stroke:#181818;stroke-width:0.5;" width="44" x="390" y="42.2969"/><text fill="#000000" font-family="sans-serif" font-size="14" lengthAdjust="spacing" textLength="30" x="397" y="62.292">PMS</text><rect fill="#6495ED" height="30.2969" rx="2.5" ry="2.5" style="stroke:#181818;stroke-width:0.5;" width="44" x="390" y="362.2578"/><text fill="#000000" font-family="sans-serif" font-size="14" lengthAdjust="spacing" textLength="30" x="397" y="382.2529">PMS</text><rect fill="#FFFFFF" height="88.1328" style="stroke:#181818;stroke-width:1.0;" width="10" x="23" y="266.125"/><rect fill="#FFFFFF" height="224.5313" style="stroke:#181818;stroke-width:1.0;" width="10" x="219" y="129.7266"/><polygon fill="#181818" points="240,125.7266,230,129.7266,240,133.7266,236,129.7266" style="stroke:#181818;stroke-width:1.0;"/><line style="stroke:#181818;stroke-width:2.0;" x1="234" x2="411" y1="129.7266" y2="129.7266"/><text fill="#000000" font-family="sans-serif" font-size="13" lengthAdjust="spacing" textLength="54" x="246" y="124.6606">ADT^28</text><text fill="#000000" font-family="sans-serif" font-size="13" lengthAdjust="spacing" textLength="4" x="300" y="124.6606">&#160;</text><text fill="#000000" font-family="sans-serif" font-size="13" lengthAdjust="spacing" textLength="26" x="304" y="124.6606">ACK</text><text fill="#000000" font-family="sans-serif" font-size="13" lengthAdjust="spacing" textLength="4" x="330" y="124.6606">&#160;</text><text fill="#000000" font-family="sans-serif" font-size="13" lengthAdjust="spacing" textLength="59" x="334" y="124.6606">response</text><line style="stroke:#181818;stroke-width:2.0;" x1="229" x2="271" y1="183.8594" y2="183.8594"/><line style="stroke:#181818;stroke-width:2.0;" x1="271" x2="271" y1="183.8594" y2="196.8594"/><line style="stroke:#181818;stroke-width:2.0;" x1="230" x2="271" y1="196.8594" y2="196.8594"/><polygon fill="#181818" points="240,192.8594,230,196.8594,240,200.8594,236,196.8594" style="stroke:#181818;stroke-width:1.0;"/><text fill="#000000" font-family="sans-serif" font-size="13" lengthAdjust="spacing" textLength="67" x="236" y="178.7935">Transform</text><text fill="#000000" font-family="sans-serif" font-size="13" lengthAdjust="spacing" textLength="4" x="303" y="178.7935">&#160;</text><text fill="#000000" font-family="sans-serif" font-size="13" lengthAdjust="spacing" textLength="24" x="307" y="178.7935">HL7</text><text fill="#000000" font-family="sans-serif" font-size="13" lengthAdjust="spacing" textLength="4" x="331" y="178.7935">&#160;</text><text fill="#000000" font-family="sans-serif" font-size="13" lengthAdjust="spacing" textLength="16" x="335" y="178.7935">v2</text><text fill="#000000" font-family="sans-serif" font-size="13" lengthAdjust="spacing" textLength="4" x="351" y="178.7935">&#160;</text><text fill="#000000" font-family="sans-serif" font-size="13" lengthAdjust="spacing" textLength="13" x="355" y="178.7935">to</text><text fill="#000000" font-family="sans-serif" font-size="13" lengthAdjust="spacing" textLength="4" x="368" y="178.7935">&#160;</text><text fill="#000000" font-family="sans-serif" font-size="13" lengthAdjust="spacing" textLength="28" x="372" y="178.7935">FHIR</text><polygon fill="#181818" points="44,262.125,34,266.125,44,270.125,40,266.125" style="stroke:#181818;stroke-width:1.0;"/><line style="stroke:#181818;stroke-width:2.0;" x1="38" x2="218" y1="266.125" y2="266.125"/><text fill="#000000" font-family="sans-serif" font-size="13" lengthAdjust="spacing" textLength="34" x="50" y="245.9263">POST</text><text fill="#000000" font-family="sans-serif" font-size="13" lengthAdjust="spacing" textLength="167" x="50" y="261.0591">[base]/$process-message</text><polygon fill="#181818" points="207,316.2578,217,320.2578,207,324.2578,211,320.2578" style="stroke:#181818;stroke-width:1.0;"/><line style="stroke:#181818;stroke-width:2.0;stroke-dasharray:2.0,2.0;" x1="33" x2="213" y1="320.2578" y2="320.2578"/><text fill="#000000" font-family="sans-serif" font-size="13" lengthAdjust="spacing" textLength="24" x="40" y="315.1919">200</text><text fill="#000000" font-family="sans-serif" font-size="13" lengthAdjust="spacing" textLength="4" x="64" y="315.1919">&#160;</text><text fill="#000000" font-family="sans-serif" font-size="13" lengthAdjust="spacing" textLength="63" x="68" y="315.1919">Response</text><!--SRC=[VP11Qy9044Rl-HKVjbUf3PIA566JMfHM6qnkOc5DHbrCTjFPZPRYZs-CjbeAlSw-D_iOkr6wb2mBM7glIASacCqkMQjqeybQ-9xzGTXKEaiDQsBSNSmB-L7Kh5oHLP-4ssxdul5xRoJPgLILKZiiJ9vvJhcSW85canTKJoUcK5ewPJIc1yawhxoGMfD1Z1QaXS1LM5SiSxCZ3lAAVdCFJyFH528QzJ5kifHUOLWj6ZVutut6SOE5Vx3zVkzvORkFe0VncBpvNOZm6KosDDgI9rEdjj8HWWODS4GJbjek3HSOljnZwyCP7FhEaEW1qMkSOBQGbkOtroMRjEvkdsvwtYmQIQ0zowHTKpO_Vk5tElN1ZXau85y0]--></g></svg>