<?xml version="1.0" encoding="us-ascii" standalone="no"?><svg xmlns="http://www.w3.org/2000/svg" xmlns:xlink="http://www.w3.org/1999/xlink" contentStyleType="text/css" height="373px" preserveAspectRatio="none" style="width:413px;height:373px;background:#FFFFFF;" version="1.1" viewBox="0 0 413 373" width="413px" zoomAndPan="magnify"><defs/><g><text fill="#000000" font-family="sans-serif" font-size="14" font-weight="bold" lengthAdjust="spacing" textLength="253" x="79" y="27.9951">Enrolment Nomination Request</text><rect fill="#FFFFFF" height="184.3984" style="stroke:#181818;stroke-width:1.0;" width="10" x="214" y="144.8594"/><rect fill="#FFFFFF" height="34" style="stroke:#181818;stroke-width:1.0;" width="10" x="380" y="295.2578"/><line style="stroke:#181818;stroke-width:0.5;stroke-dasharray:5.0,5.0;" x1="28" x2="28" y1="73.5938" y2="338.2578"/><line style="stroke:#181818;stroke-width:0.5;stroke-dasharray:5.0,5.0;" x1="218.5" x2="218.5" y1="73.5938" y2="338.2578"/><line style="stroke:#181818;stroke-width:0.5;stroke-dasharray:5.0,5.0;" x1="385" x2="385" y1="73.5938" y2="338.2578"/><rect fill="#6495ED" height="30.2969" rx="2.5" ry="2.5" style="stroke:#181818;stroke-width:0.5;" width="46" x="5" y="42.2969"/><text fill="#000000" font-family="sans-serif" font-size="14" lengthAdjust="spacing" textLength="28" x="12" y="62.292">NES</text><rect fill="#6495ED" height="30.2969" rx="2.5" ry="2.5" style="stroke:#181818;stroke-width:0.5;" width="46" x="5" y="337.2578"/><text fill="#000000" font-family="sans-serif" font-size="14" lengthAdjust="spacing" textLength="28" x="12" y="357.2529">NES</text><rect fill="#6495ED" height="30.2969" rx="2.5" ry="2.5" style="stroke:#181818;stroke-width:0.5;" width="205" x="116.5" y="42.2969"/><text fill="#000000" font-family="sans-serif" font-size="14" lengthAdjust="spacing" textLength="191" x="123.5" y="62.292">&lt;FHIR API&gt; Messaging Hub</text><rect fill="#6495ED" height="30.2969" rx="2.5" ry="2.5" style="stroke:#181818;stroke-width:0.5;" width="205" x="116.5" y="337.2578"/><text fill="#000000" font-family="sans-serif" font-size="14" lengthAdjust="spacing" textLength="191" x="123.5" y="357.2529">&lt;FHIR API&gt; Messaging Hub</text><rect fill="#6495ED" height="30.2969" rx="2.5" ry="2.5" style="stroke:#181818;stroke-width:0.5;" width="44" x="363" y="42.2969"/><text fill="#000000" font-family="sans-serif" font-size="14" lengthAdjust="spacing" textLength="30" x="370" y="62.292">PMS</text><rect fill="#6495ED" height="30.2969" rx="2.5" ry="2.5" style="stroke:#181818;stroke-width:0.5;" width="44" x="363" y="337.2578"/><text fill="#000000" font-family="sans-serif" font-size="14" lengthAdjust="spacing" textLength="30" x="370" y="357.2529">PMS</text><rect fill="#FFFFFF" height="184.3984" style="stroke:#181818;stroke-width:1.0;" width="10" x="214" y="144.8594"/><rect fill="#FFFFFF" height="34" style="stroke:#181818;stroke-width:1.0;" width="10" x="380" y="295.2578"/><polygon fill="#181818" points="202,140.8594,212,144.8594,202,148.8594,206,144.8594" style="stroke:#181818;stroke-width:1.0;"/><line style="stroke:#181818;stroke-width:2.0;" x1="28" x2="208" y1="144.8594" y2="144.8594"/><text fill="#000000" font-family="sans-serif" font-size="13" lengthAdjust="spacing" textLength="34" x="35" y="124.6606">POST</text><text fill="#000000" font-family="sans-serif" font-size="13" lengthAdjust="spacing" textLength="167" x="35" y="139.7935">[base]/$process-message</text><line style="stroke:#181818;stroke-width:2.0;" x1="224" x2="266" y1="198.9922" y2="198.9922"/><line style="stroke:#181818;stroke-width:2.0;" x1="266" x2="266" y1="198.9922" y2="211.9922"/><line style="stroke:#181818;stroke-width:2.0;" x1="225" x2="266" y1="211.9922" y2="211.9922"/><polygon fill="#181818" points="235,207.9922,225,211.9922,235,215.9922,231,211.9922" style="stroke:#181818;stroke-width:1.0;"/><text fill="#000000" font-family="sans-serif" font-size="13" lengthAdjust="spacing" textLength="67" x="231" y="193.9263">Transform</text><text fill="#000000" font-family="sans-serif" font-size="13" lengthAdjust="spacing" textLength="4" x="298" y="193.9263">&#160;</text><text fill="#000000" font-family="sans-serif" font-size="13" lengthAdjust="spacing" textLength="13" x="302" y="193.9263">to</text><text fill="#000000" font-family="sans-serif" font-size="13" lengthAdjust="spacing" textLength="4" x="315" y="193.9263">&#160;</text><text fill="#000000" font-family="sans-serif" font-size="13" lengthAdjust="spacing" textLength="24" x="319" y="193.9263">HL7</text><text fill="#000000" font-family="sans-serif" font-size="13" lengthAdjust="spacing" textLength="4" x="343" y="193.9263">&#160;</text><text fill="#000000" font-family="sans-serif" font-size="13" lengthAdjust="spacing" textLength="26" x="347" y="193.9263">v2[]</text><polygon fill="#181818" points="39,262.125,29,266.125,39,270.125,35,266.125" style="stroke:#181818;stroke-width:1.0;"/><line style="stroke:#181818;stroke-width:2.0;stroke-dasharray:2.0,2.0;" x1="33" x2="213" y1="266.125" y2="266.125"/><text fill="#000000" font-family="sans-serif" font-size="13" lengthAdjust="spacing" textLength="24" x="45" y="261.0591">200</text><text fill="#000000" font-family="sans-serif" font-size="13" lengthAdjust="spacing" textLength="4" x="69" y="261.0591">&#160;</text><text fill="#000000" font-family="sans-serif" font-size="13" lengthAdjust="spacing" textLength="63" x="73" y="261.0591">Response</text><polygon fill="#181818" points="368,291.2578,378,295.2578,368,299.2578,372,295.2578" style="stroke:#181818;stroke-width:1.0;"/><line style="stroke:#181818;stroke-width:2.0;" x1="224" x2="374" y1="295.2578" y2="295.2578"/><text fill="#000000" font-family="sans-serif" font-size="13" lengthAdjust="spacing" textLength="54" x="231" y="290.1919">ADT^28</text><text fill="#000000" font-family="sans-serif" font-size="13" lengthAdjust="spacing" textLength="4" x="285" y="290.1919">&#160;</text><text fill="#000000" font-family="sans-serif" font-size="13" lengthAdjust="spacing" textLength="49" x="289" y="290.1919">request</text><!--SRC=[VP3HQi9044NVynKNsrUf3PIA5259BGhL1isRM1YJKHUJtNHsewNuyOsfYgNGrvbpxWpNRfKkIQY0vO-ATSg1YDad6vLkDLiBtxCNH4obizI8Pi73rRoWpw9cQSrMVJ7kkvshvJat9d4gLILfXwN9CyyfbpCmq6BoWklfn1HAarD6OtgKhFFAAwar6SpG0ba4k8dgBrQvsRE4USM_kQUNuMYA81xrCMxUKdgDORLitF1_DnxF6YpwWnqE1yyBqEuZx25-coMOBydoukws59FMTzgd3ZnAdTgHOuID59wSH4ZRbP42pc3u-eYTFr-SYNb6TiFPeaQ37lnEfwx0baPRnaz0r4FmdBpxNSYfcykPw1Zo3G00]--></g></svg>